<svg width="24" height="24" viewBox="0 0 24 24" fill="none" xmlns="http://www.w3.org/2000/svg">
<path fill-rule="evenodd" clip-rule="evenodd" d="M4 0C1.79102 0 0 1.79083 0 4V20C0 22.2092 1.79102 24 4 24H20C22.209 24 24 22.2092 24 20V4C24 1.79083 22.209 0 20 0H4ZM13.9854 10.6266L13.3721 10.0133L7.33301 16.0533V16.6667H7.94629L13.9854 10.6266ZM15.3052 6.19336C15.4321 6.06665 15.6055 6 15.772 6C15.9453 6 16.1118 6.06 16.2451 6.19336L17.8052 7.75336C17.9663 7.91467 18.0273 8.13757 17.9888 8.34564C17.9648 8.4729 17.9038 8.59467 17.8052 8.69336L16.585 9.91333L14.0854 7.41333L15.3052 6.19336ZM6 15.5L13.3721 8.12665L15.8721 10.6266L8.49951 18H6V15.5Z" fill="#651FFF"/>
</svg>
