<svg width="32" height="32" viewBox="0 0 32 32" fill="none" xmlns="http://www.w3.org/2000/svg">
<path d="M14.6665 12H17.3332V9.33333H14.6665M15.9998 26.6667C10.1198 26.6667 5.33317 21.88 5.33317 16C5.33317 10.12 10.1198 5.33333 15.9998 5.33333C21.8798 5.33333 26.6665 10.12 26.6665 16C26.6665 21.88 21.8798 26.6667 15.9998 26.6667ZM15.9998 2.66666C14.2489 2.66666 12.5151 3.01154 10.8974 3.6816C9.27972 4.35167 7.80986 5.33379 6.57175 6.57191C4.07126 9.07239 2.6665 12.4638 2.6665 16C2.6665 19.5362 4.07126 22.9276 6.57175 25.4281C7.80986 26.6662 9.27972 27.6483 10.8974 28.3184C12.5151 28.9885 14.2489 29.3333 15.9998 29.3333C19.5361 29.3333 22.9274 27.9286 25.4279 25.4281C27.9284 22.9276 29.3332 19.5362 29.3332 16C29.3332 14.249 28.9883 12.5152 28.3182 10.8976C27.6482 9.27988 26.666 7.81002 25.4279 6.57191C24.1898 5.33379 22.72 4.35167 21.1023 3.6816C19.4846 3.01154 17.7508 2.66666 15.9998 2.66666ZM14.6665 22.6667H17.3332V14.6667H14.6665V22.6667Z" fill="#651FFF"/>
</svg>
