<svg width="32" height="32" viewBox="0 0 32 32" fill="none" xmlns="http://www.w3.org/2000/svg">
<path d="M15.9998 4C8.6665 4 2.6665 8.8 2.6665 14.6667C2.6665 17.6 4.13317 20.2667 6.39984 22C6.39984 22.8 5.8665 24.9333 2.6665 28C5.8665 27.8667 8.79984 26.6667 11.3332 24.6667C12.7998 25.0667 14.3998 25.3333 15.9998 25.3333C23.3332 25.3333 29.3332 20.5333 29.3332 14.6667C29.3332 8.8 23.3332 4 15.9998 4ZM15.9998 22.6667C10.1332 22.6667 5.33317 19.0667 5.33317 14.6667C5.33317 10.2667 10.1332 6.66667 15.9998 6.66667C21.8665 6.66667 26.6665 10.2667 26.6665 14.6667C26.6665 19.0667 21.8665 22.6667 15.9998 22.6667ZM16.2665 8.66667C15.0665 8.66667 14.1332 8.93333 13.4665 9.33333C12.6665 9.86667 12.2665 10.6667 12.3998 11.6H15.0665C15.0665 11.2 15.1998 10.9333 15.4665 10.8C15.7332 10.6667 15.9998 10.5333 16.3998 10.5333C16.7998 10.5333 17.1998 10.6667 17.4665 10.9333C17.7332 11.2 17.8665 11.4667 17.8665 11.8667C17.8665 12.2667 17.7332 12.5333 17.5998 12.8C17.3332 13.0667 17.0665 13.3333 16.7998 13.4667C16.1332 13.8667 15.5998 14.2667 15.3332 14.5333C14.7998 14.9333 14.6665 15.3333 14.6665 16H17.3332C17.3332 15.6 17.4665 15.3333 17.4665 15.0667C17.5998 14.8 17.8665 14.6667 18.1332 14.4C18.7998 14.1333 19.1998 13.7333 19.5998 13.2C19.9998 12.6667 20.1332 12.1333 20.1332 11.6C20.1332 10.6667 19.7332 9.86667 19.0665 9.33333C18.5332 8.93333 17.4665 8.66667 16.2665 8.66667ZM14.6665 17.3333V20H17.3332V17.3333H14.6665Z" fill="#651FFF"/>
</svg>
