<svg width="25" height="25" viewBox="0 0 25 25" fill="none" xmlns="http://www.w3.org/2000/svg">
<path d="M11.8833 9.77869L15.0533 12.9387C15.0533 12.8887 15.0533 12.8287 15.0533 12.7787C15.0533 11.983 14.7373 11.22 14.1747 10.6574C13.6121 10.0948 12.849 9.77869 12.0533 9.77869C11.9933 9.77869 11.9433 9.77869 11.8833 9.77869ZM7.58334 10.5787L9.13334 12.1287C9.08334 12.3387 9.05334 12.5487 9.05334 12.7787C9.05334 13.5743 9.36941 14.3374 9.93202 14.9C10.4946 15.4626 11.2577 15.7787 12.0533 15.7787C12.2733 15.7787 12.4933 15.7487 12.7033 15.6987L14.2533 17.2487C13.5833 17.5787 12.8433 17.7787 12.0533 17.7787C10.7273 17.7787 9.45549 17.2519 8.51781 16.3142C7.58013 15.3765 7.05334 14.1048 7.05334 12.7787C7.05334 11.9887 7.25334 11.2487 7.58334 10.5787ZM2.05334 5.04869L4.33334 7.32869L4.78334 7.77869C3.13334 9.07869 1.83334 10.7787 1.05334 12.7787C2.78334 17.1687 7.05334 20.2787 12.0533 20.2787C13.6033 20.2787 15.0833 19.9787 16.4333 19.4387L16.8633 19.8587L19.7833 22.7787L21.0533 21.5087L3.32334 3.77869M12.0533 7.77869C13.3794 7.77869 14.6512 8.30547 15.5889 9.24315C16.5266 10.1808 17.0533 11.4526 17.0533 12.7787C17.0533 13.4187 16.9233 14.0387 16.6933 14.5987L19.6233 17.5287C21.1233 16.2787 22.3233 14.6387 23.0533 12.7787C21.3233 8.38869 17.0533 5.27869 12.0533 5.27869C10.6533 5.27869 9.31334 5.52869 8.05334 5.97869L10.2233 8.12869C10.7933 7.90869 11.4033 7.77869 12.0533 7.77869Z" fill="black"/>
</svg>
