<svg width="32" height="32" viewBox="0 0 32 32" fill="none" xmlns="http://www.w3.org/2000/svg">
<path d="M11.9998 1.45333V8H9.33317V1.45333C5.5465 2.09333 2.6665 5.37333 2.6665 9.33333C2.6665 12.2933 4.27984 14.8667 6.6665 16.2533V28C6.6665 28.7333 7.2665 29.3333 7.99984 29.3333H13.3332C14.0665 29.3333 14.6665 28.7333 14.6665 28V16.2533C17.0532 14.8667 18.6665 12.2933 18.6665 9.33333C18.6665 5.37333 15.7865 2.09333 11.9998 1.45333ZM13.3332 13.9467L11.9998 14.72V26.6667H9.33317V14.72L7.99984 13.9467C6.35984 12.9867 5.33317 11.2267 5.33317 9.33333C5.33317 8 5.8265 6.74667 6.6665 5.8V10.6667H14.6665V5.8C15.5065 6.74667 15.9998 8 15.9998 9.33333C15.9998 11.2267 14.9732 12.9867 13.3332 13.9467ZM27.9198 23.92C27.9465 23.72 27.9598 23.5333 27.9598 23.3333C27.9598 23.1333 27.9465 22.9333 27.9198 22.7333L29.2132 21.76C29.3332 21.6667 29.3732 21.5067 29.2932 21.3733L28.0665 19.2933C27.9998 19.16 27.8265 19.1067 27.6798 19.16L26.1465 19.76C25.8265 19.5333 25.4932 19.3333 25.1065 19.1733L24.8798 17.5867C24.8532 17.44 24.7198 17.3333 24.5732 17.3333H22.1065C21.9465 17.3333 21.8132 17.44 21.7865 17.5867L21.5598 19.1733C21.1732 19.3333 20.8398 19.5333 20.5198 19.76L18.9865 19.16C18.8532 19.1067 18.6665 19.16 18.6132 19.2933L17.3732 21.3733C17.2932 21.5067 17.3332 21.6667 17.4532 21.76L18.7465 22.7333C18.7332 22.9333 18.7065 23.1333 18.7065 23.3333C18.7065 23.5333 18.7332 23.72 18.7465 23.92L17.4532 24.9067C17.3332 25 17.2932 25.16 17.3732 25.2933L18.6132 27.3733C18.6665 27.5067 18.8532 27.5467 18.9865 27.5067L20.5198 26.8933C20.8398 27.1333 21.1732 27.3333 21.5598 27.4933L21.7865 29.08C21.8132 29.2267 21.9465 29.3333 22.1065 29.3333H24.5732C24.7198 29.3333 24.8532 29.2267 24.8798 29.08L25.1065 27.4933C25.4932 27.3333 25.8265 27.1333 26.1465 26.8933L27.6798 27.5067C27.8265 27.5467 27.9998 27.5067 28.0665 27.3733L29.2932 25.2933C29.3732 25.16 29.3332 25 29.2132 24.9067L27.9198 23.92ZM23.3332 25.3333C22.2265 25.3333 21.3332 24.44 21.3332 23.3333C21.3332 22.2267 22.2265 21.3333 23.3332 21.3333C24.4398 21.3333 25.3332 22.2267 25.3332 23.3333C25.3332 24.44 24.4398 25.3333 23.3332 25.3333Z" fill="#651FFF"/>
</svg>
