<svg width="32" height="32" viewBox="0 0 32 32" fill="none" xmlns="http://www.w3.org/2000/svg">
<path d="M21.8132 18.6667C21.9198 17.7867 21.9998 16.9067 21.9998 16C21.9998 15.0933 21.9198 14.2133 21.8132 13.3333H26.3198C26.5332 14.1867 26.6665 15.08 26.6665 16C26.6665 16.92 26.5332 17.8133 26.3198 18.6667M19.4532 26.08C20.2532 24.6 20.8665 23 21.2932 21.3333H25.2265C23.9465 23.5333 21.9065 25.24 19.4532 26.08ZM19.1198 18.6667H12.8798C12.7465 17.7867 12.6665 16.9067 12.6665 16C12.6665 15.0933 12.7465 14.2 12.8798 13.3333H19.1198C19.2398 14.2 19.3332 15.0933 19.3332 16C19.3332 16.9067 19.2398 17.7867 19.1198 18.6667ZM15.9998 26.6133C14.8932 25.0133 13.9998 23.24 13.4532 21.3333H18.5465C17.9998 23.24 17.1065 25.0133 15.9998 26.6133ZM10.6665 10.6667H6.77317C8.03984 8.45333 10.0932 6.74667 12.5332 5.92C11.7332 7.4 11.1332 9 10.6665 10.6667ZM6.77317 21.3333H10.6665C11.1332 23 11.7332 24.6 12.5332 26.08C10.0932 25.24 8.03984 23.5333 6.77317 21.3333ZM5.67984 18.6667C5.4665 17.8133 5.33317 16.92 5.33317 16C5.33317 15.08 5.4665 14.1867 5.67984 13.3333H10.1865C10.0798 14.2133 9.99984 15.0933 9.99984 16C9.99984 16.9067 10.0798 17.7867 10.1865 18.6667M15.9998 5.37333C17.1065 6.97333 17.9998 8.76 18.5465 10.6667H13.4532C13.9998 8.76 14.8932 6.97333 15.9998 5.37333ZM25.2265 10.6667H21.2932C20.8665 9 20.2532 7.4 19.4532 5.92C21.9065 6.76 23.9465 8.45333 25.2265 10.6667ZM15.9998 2.66667C8.6265 2.66667 2.6665 8.66667 2.6665 16C2.6665 19.5362 4.07126 22.9276 6.57175 25.4281C7.80986 26.6662 9.27972 27.6483 10.8974 28.3184C12.5151 28.9885 14.2489 29.3333 15.9998 29.3333C19.5361 29.3333 22.9274 27.9286 25.4279 25.4281C27.9284 22.9276 29.3332 19.5362 29.3332 16C29.3332 14.249 28.9883 12.5152 28.3182 10.8976C27.6482 9.27988 26.666 7.81003 25.4279 6.57191C24.1898 5.3338 22.72 4.35167 21.1023 3.68161C19.4846 3.01154 17.7508 2.66667 15.9998 2.66667Z" fill="#651FFF"/>
</svg>
