<svg width="134" height="120" viewBox="0 0 134 120" fill="none" xmlns="http://www.w3.org/2000/svg">
<mask id="mask0_23_437" style="mask-type:alpha" maskUnits="userSpaceOnUse" x="0" y="0" width="134" height="120">
<rect x="0.333313" width="133.333" height="120" fill="#D9D9D9"/>
</mask>
<g mask="url(#mask0_23_437)">
<path d="M25.6666 76V73.3333H52.3333V76H25.6666ZM27.2 67.9333L25.4666 66.9333L26.6 64.9333H24.3333V62.9333H26.6L25.4666 61L27.2 60L28.3333 61.9333L29.4666 60L31.2 61L30.0666 62.9333H32.3333V64.9333H30.0666L31.2 66.9333L29.4666 67.9333L28.3333 65.9333L27.2 67.9333ZM37.8666 67.9333L36.1333 66.9333L37.2666 64.9333H35V62.9333H37.2666L36.1333 61L37.8666 60L39 61.9333L40.1333 60L41.8666 61L40.7333 62.9333H43V64.9333H40.7333L41.8666 66.9333L40.1333 67.9333L39 65.9333L37.8666 67.9333ZM48.5333 67.9333L46.8 66.9333L47.9333 64.9333H45.6666V62.9333H47.9333L46.8 61L48.5333 60L49.6666 61.9333L50.8 60L52.5333 61L51.4 62.9333H53.6666V64.9333H51.4L52.5333 66.9333L50.8 67.9333L49.6666 65.9333L48.5333 67.9333Z" fill="#651FFF"/>
<path d="M107 116L97.6666 106.667L108.167 96H80.3333V82.6667H108.167L97.6666 72L107 62.6667L133.667 89.3333L107 116ZM13.6666 96C9.99998 96 6.8622 94.6955 4.25331 92.0867C1.63998 89.4733 0.333313 86.3333 0.333313 82.6667V16C0.333313 12.3333 1.63998 9.19332 4.25331 6.57999C6.8622 3.9711 9.99998 2.66666 13.6666 2.66666H100.333C104 2.66666 107.14 3.9711 109.753 6.57999C112.362 9.19332 113.667 12.3333 113.667 16V50C112.556 49.7778 111.444 49.6111 110.333 49.5C109.222 49.3889 108.111 49.3333 107 49.3333C105.889 49.3333 104.778 49.36 103.667 49.4133C102.556 49.4711 101.444 49.6111 100.333 49.8333V25.3333L56.3333 56L13.6666 25.5V82.6667H67.5C67.2778 83.7778 67.1378 84.8889 67.08 86C67.0266 87.1111 67 88.2222 67 89.3333C67 90.4444 67.0555 91.5555 67.1666 92.6667C67.2778 93.7778 67.4444 94.8889 67.6666 96H13.6666ZM23.3333 16L56.3333 39.6667L90.3333 16H23.3333Z" fill="#651FFF"/>
</g>
</svg>
