<svg width="32" height="32" viewBox="0 0 32 32" fill="none" xmlns="http://www.w3.org/2000/svg">
<path d="M9.99984 2.66667C7.61317 4.2 5.99984 6.90667 5.99984 10C5.99984 13.0933 7.61317 15.8 10.0398 17.3333C5.9465 17.3333 2.6665 14.0533 2.6665 10C2.6665 8.05508 3.43912 6.18982 4.81439 4.81455C6.18965 3.43928 8.05492 2.66667 9.99984 2.66667ZM25.4265 4.66667L27.3332 6.57333L6.57317 27.3333L4.6665 25.4267L25.4265 4.66667ZM17.1865 7.90667L15.2132 6.66667L13.2932 8L13.8532 5.73333L11.9998 4.32L14.3332 4.16L15.1065 1.96L15.9998 4.13333L18.3065 4.17333L16.5065 5.68L17.1865 7.90667ZM12.7865 12.72L11.2398 11.7467L9.7465 12.7867L10.1998 11.0267L8.7465 9.92L10.5598 9.8L11.1598 8.08L11.8398 9.77333L13.6532 9.81333L12.2532 10.9733L12.7865 12.72ZM25.3332 18C25.3332 19.9449 24.5606 21.8102 23.1853 23.1854C21.81 24.5607 19.9448 25.3333 17.9998 25.3333C16.3732 25.3333 14.8665 24.8 13.6532 23.9067L23.9065 13.6533C24.7998 14.8667 25.3332 16.3733 25.3332 18ZM19.4665 26.7733L23.1598 25.24L22.8398 29.7067L19.4665 26.7733ZM25.2398 23.1733L26.7732 19.48L29.7065 22.8667L25.2398 23.1733ZM26.7732 16.56L25.2532 12.8533L29.7065 13.1733L26.7732 16.56ZM12.8398 25.24L16.5332 26.7733L13.1598 29.6933L12.8398 25.24Z" fill="#651FFF"/>
</svg>
